<svg width="203" height="47" viewBox="0 0 203 47" fill="none" xmlns="http://www.w3.org/2000/svg">
<path d="M66.5391 8.5625H77.1445C79.319 8.5625 81.1875 8.88802 82.75 9.53906C84.3255 10.1901 85.5365 11.1536 86.3828 12.4297C87.2292 13.7057 87.6523 15.2747 87.6523 17.1367C87.6523 18.6602 87.3919 19.9688 86.8711 21.0625C86.3633 22.1432 85.6406 23.0482 84.7031 23.7773C83.7786 24.4935 82.6914 25.0664 81.4414 25.4961L79.5859 26.4727H70.3672L70.3281 21.9023H77.1836C78.2122 21.9023 79.0651 21.7201 79.7422 21.3555C80.4193 20.9909 80.9271 20.4831 81.2656 19.832C81.6172 19.181 81.793 18.4258 81.793 17.5664C81.793 16.6549 81.6237 15.8672 81.2852 15.2031C80.9466 14.5391 80.4323 14.0312 79.7422 13.6797C79.0521 13.3281 78.1862 13.1523 77.1445 13.1523H72.3984V37H66.5391V8.5625ZM82.4375 37L75.9531 24.3242L82.1445 24.2852L88.707 36.7266V37H82.4375ZM97.3008 7V37H91.6758V7H97.3008ZM96.5 25.6914H94.957C94.9701 24.2201 95.1654 22.8659 95.543 21.6289C95.9206 20.3789 96.4609 19.2982 97.1641 18.3867C97.8672 17.4622 98.707 16.7461 99.6836 16.2383C100.673 15.7305 101.767 15.4766 102.965 15.4766C104.007 15.4766 104.951 15.6263 105.797 15.9258C106.656 16.2122 107.392 16.681 108.004 17.332C108.629 17.9701 109.111 18.8099 109.449 19.8516C109.788 20.8932 109.957 22.1562 109.957 23.6406V37H104.293V23.6016C104.293 22.6641 104.156 21.9284 103.883 21.3945C103.622 20.8477 103.238 20.4635 102.73 20.2422C102.236 20.0078 101.624 19.8906 100.895 19.8906C100.087 19.8906 99.3971 20.0404 98.8242 20.3398C98.2643 20.6393 97.8151 21.056 97.4766 21.5898C97.138 22.1107 96.8906 22.7227 96.7344 23.4258C96.5781 24.1289 96.5 24.8841 96.5 25.6914ZM120.504 34.6172L126.109 15.8672H132.145L123.648 40.1836C123.466 40.7174 123.219 41.2904 122.906 41.9023C122.607 42.5143 122.197 43.0938 121.676 43.6406C121.168 44.2005 120.523 44.6562 119.742 45.0078C118.974 45.3594 118.03 45.5352 116.91 45.5352C116.376 45.5352 115.94 45.5026 115.602 45.4375C115.263 45.3724 114.859 45.2812 114.391 45.1641V41.043C114.534 41.043 114.684 41.043 114.84 41.043C114.996 41.056 115.146 41.0625 115.289 41.0625C116.031 41.0625 116.637 40.9779 117.105 40.8086C117.574 40.6393 117.952 40.3789 118.238 40.0273C118.525 39.6888 118.753 39.2461 118.922 38.6992L120.504 34.6172ZM118.16 15.8672L122.75 31.1797L123.551 37.1367L119.723 37.5469L112.125 15.8672H118.16ZM144.742 15.8672V19.8516H132.438V15.8672H144.742ZM135.484 10.6523H141.109V30.6328C141.109 31.2448 141.188 31.7135 141.344 32.0391C141.513 32.3646 141.76 32.5924 142.086 32.7227C142.411 32.8398 142.822 32.8984 143.316 32.8984C143.668 32.8984 143.98 32.8854 144.254 32.8594C144.54 32.8203 144.781 32.7812 144.977 32.7422L144.996 36.8828C144.514 37.0391 143.993 37.1628 143.434 37.2539C142.874 37.3451 142.255 37.3906 141.578 37.3906C140.341 37.3906 139.26 37.1888 138.336 36.7852C137.424 36.3685 136.721 35.7044 136.227 34.793C135.732 33.8815 135.484 32.6836 135.484 31.1992V10.6523ZM153.434 7V37H147.809V7H153.434ZM152.633 25.6914H151.09C151.103 24.2201 151.298 22.8659 151.676 21.6289C152.053 20.3789 152.594 19.2982 153.297 18.3867C154 17.4622 154.84 16.7461 155.816 16.2383C156.806 15.7305 157.9 15.4766 159.098 15.4766C160.139 15.4766 161.083 15.6263 161.93 15.9258C162.789 16.2122 163.525 16.681 164.137 17.332C164.762 17.9701 165.243 18.8099 165.582 19.8516C165.921 20.8932 166.09 22.1562 166.09 23.6406V37H160.426V23.6016C160.426 22.6641 160.289 21.9284 160.016 21.3945C159.755 20.8477 159.371 20.4635 158.863 20.2422C158.368 20.0078 157.757 19.8906 157.027 19.8906C156.22 19.8906 155.53 20.0404 154.957 20.3398C154.397 20.6393 153.948 21.056 153.609 21.5898C153.271 22.1107 153.023 22.7227 152.867 23.4258C152.711 24.1289 152.633 24.8841 152.633 25.6914ZM175.992 20.2422V37H170.348V15.8672H175.641L175.992 20.2422ZM175.211 25.6914H173.648C173.648 24.2201 173.824 22.8659 174.176 21.6289C174.54 20.3789 175.068 19.2982 175.758 18.3867C176.461 17.4622 177.327 16.7461 178.355 16.2383C179.384 15.7305 180.576 15.4766 181.93 15.4766C182.867 15.4766 183.727 15.6198 184.508 15.9062C185.289 16.1797 185.96 16.6159 186.52 17.2148C187.092 17.8008 187.535 18.569 187.848 19.5195C188.16 20.457 188.316 21.5833 188.316 22.8984V37H182.691V23.5234C182.691 22.5599 182.561 21.8177 182.301 21.2969C182.04 20.776 181.669 20.4115 181.188 20.2031C180.719 19.9948 180.152 19.8906 179.488 19.8906C178.759 19.8906 178.121 20.0404 177.574 20.3398C177.04 20.6393 176.598 21.056 176.246 21.5898C175.895 22.1107 175.634 22.7227 175.465 23.4258C175.296 24.1289 175.211 24.8841 175.211 25.6914ZM187.789 25.0469L185.777 25.3008C185.777 23.9206 185.947 22.638 186.285 21.4531C186.637 20.2682 187.151 19.2266 187.828 18.3281C188.518 17.4297 189.371 16.7331 190.387 16.2383C191.402 15.7305 192.574 15.4766 193.902 15.4766C194.918 15.4766 195.842 15.6263 196.676 15.9258C197.509 16.2122 198.219 16.6745 198.805 17.3125C199.404 17.9375 199.859 18.7578 200.172 19.7734C200.497 20.7891 200.66 22.0326 200.66 23.5039V37H195.016V23.5039C195.016 22.5273 194.885 21.7852 194.625 21.2773C194.378 20.7565 194.013 20.3984 193.531 20.2031C193.062 19.9948 192.503 19.8906 191.852 19.8906C191.174 19.8906 190.582 20.0273 190.074 20.3008C189.566 20.5612 189.143 20.9258 188.805 21.3945C188.466 21.8633 188.212 22.4102 188.043 23.0352C187.874 23.6471 187.789 24.3177 187.789 25.0469Z" fill="#121212"/>
<path fill-rule="evenodd" clip-rule="evenodd" d="M20.2139 25.0374C19.6652 35.5241 10.8456 43.878 0 44V4C10.8456 4.12209 19.6652 12.4759 20.2139 22.9626C20.7553 12.6141 29.3512 4.34272 40 4.00915V43.991C29.3512 43.6574 20.7553 35.386 20.2139 25.0374Z" fill="#FF6428"/>
</svg>
