<svg width="124" height="29" viewBox="0 0 124 29" fill="none" xmlns="http://www.w3.org/2000/svg">
<path d="M41.5234 4.9375H47.8867C49.1914 4.9375 50.3125 5.13281 51.25 5.52344C52.1953 5.91406 52.9219 6.49219 53.4297 7.25781C53.9375 8.02344 54.1914 8.96484 54.1914 10.082C54.1914 10.9961 54.0352 11.7812 53.7227 12.4375C53.418 13.0859 52.9844 13.6289 52.4219 14.0664C51.8672 14.4961 51.2148 14.8398 50.4648 15.0977L49.3516 15.6836H43.8203L43.7969 12.9414H47.9102C48.5273 12.9414 49.0391 12.832 49.4453 12.6133C49.8516 12.3945 50.1562 12.0898 50.3594 11.6992C50.5703 11.3086 50.6758 10.8555 50.6758 10.3398C50.6758 9.79297 50.5742 9.32031 50.3711 8.92188C50.168 8.52344 49.8594 8.21875 49.4453 8.00781C49.0312 7.79688 48.5117 7.69141 47.8867 7.69141H45.0391V22H41.5234V4.9375ZM51.0625 22L47.1719 14.3945L50.8867 14.3711L54.8242 21.8359V22H51.0625ZM59.9805 4V22H56.6055V4H59.9805ZM59.5 15.2148H58.5742C58.582 14.332 58.6992 13.5195 58.9258 12.7773C59.1523 12.0273 59.4766 11.3789 59.8984 10.832C60.3203 10.2773 60.8242 9.84766 61.4102 9.54297C62.0039 9.23828 62.6602 9.08594 63.3789 9.08594C64.0039 9.08594 64.5703 9.17578 65.0781 9.35547C65.5938 9.52734 66.0352 9.80859 66.4023 10.1992C66.7773 10.582 67.0664 11.0859 67.2695 11.7109C67.4727 12.3359 67.5742 13.0938 67.5742 13.9844V22H64.1758V13.9609C64.1758 13.3984 64.0938 12.957 63.9297 12.6367C63.7734 12.3086 63.543 12.0781 63.2383 11.9453C62.9414 11.8047 62.5742 11.7344 62.1367 11.7344C61.6523 11.7344 61.2383 11.8242 60.8945 12.0039C60.5586 12.1836 60.2891 12.4336 60.0859 12.7539C59.8828 13.0664 59.7344 13.4336 59.6406 13.8555C59.5469 14.2773 59.5 14.7305 59.5 15.2148ZM73.9023 20.5703L77.2656 9.32031H80.8867L75.7891 23.9102C75.6797 24.2305 75.5312 24.5742 75.3438 24.9414C75.1641 25.3086 74.918 25.6562 74.6055 25.9844C74.3008 26.3203 73.9141 26.5938 73.4453 26.8047C72.9844 27.0156 72.418 27.1211 71.7461 27.1211C71.4258 27.1211 71.1641 27.1016 70.9609 27.0625C70.7578 27.0234 70.5156 26.9688 70.2344 26.8984V24.4258C70.3203 24.4258 70.4102 24.4258 70.5039 24.4258C70.5977 24.4336 70.6875 24.4375 70.7734 24.4375C71.2188 24.4375 71.582 24.3867 71.8633 24.2852C72.1445 24.1836 72.3711 24.0273 72.543 23.8164C72.7148 23.6133 72.8516 23.3477 72.9531 23.0195L73.9023 20.5703ZM72.4961 9.32031L75.25 18.5078L75.7305 22.082L73.4336 22.3281L68.875 9.32031H72.4961ZM88.4453 9.32031V11.7109H81.0625V9.32031H88.4453ZM82.8906 6.19141H86.2656V18.1797C86.2656 18.5469 86.3125 18.8281 86.4062 19.0234C86.5078 19.2188 86.6562 19.3555 86.8516 19.4336C87.0469 19.5039 87.293 19.5391 87.5898 19.5391C87.8008 19.5391 87.9883 19.5312 88.1523 19.5156C88.3242 19.4922 88.4688 19.4688 88.5859 19.4453L88.5977 21.9297C88.3086 22.0234 87.9961 22.0977 87.6602 22.1523C87.3242 22.207 86.9531 22.2344 86.5469 22.2344C85.8047 22.2344 85.1562 22.1133 84.6016 21.8711C84.0547 21.6211 83.6328 21.2227 83.3359 20.6758C83.0391 20.1289 82.8906 19.4102 82.8906 18.5195V6.19141ZM93.6602 4V22H90.2852V4H93.6602ZM93.1797 15.2148H92.2539C92.2617 14.332 92.3789 13.5195 92.6055 12.7773C92.832 12.0273 93.1562 11.3789 93.5781 10.832C94 10.2773 94.5039 9.84766 95.0898 9.54297C95.6836 9.23828 96.3398 9.08594 97.0586 9.08594C97.6836 9.08594 98.25 9.17578 98.7578 9.35547C99.2734 9.52734 99.7148 9.80859 100.082 10.1992C100.457 10.582 100.746 11.0859 100.949 11.7109C101.152 12.3359 101.254 13.0938 101.254 13.9844V22H97.8555V13.9609C97.8555 13.3984 97.7734 12.957 97.6094 12.6367C97.4531 12.3086 97.2227 12.0781 96.918 11.9453C96.6211 11.8047 96.2539 11.7344 95.8164 11.7344C95.332 11.7344 94.918 11.8242 94.5742 12.0039C94.2383 12.1836 93.9688 12.4336 93.7656 12.7539C93.5625 13.0664 93.4141 13.4336 93.3203 13.8555C93.2266 14.2773 93.1797 14.7305 93.1797 15.2148ZM107.195 11.9453V22H103.809V9.32031H106.984L107.195 11.9453ZM106.727 15.2148H105.789C105.789 14.332 105.895 13.5195 106.105 12.7773C106.324 12.0273 106.641 11.3789 107.055 10.832C107.477 10.2773 107.996 9.84766 108.613 9.54297C109.23 9.23828 109.945 9.08594 110.758 9.08594C111.32 9.08594 111.836 9.17188 112.305 9.34375C112.773 9.50781 113.176 9.76953 113.512 10.1289C113.855 10.4805 114.121 10.9414 114.309 11.5117C114.496 12.0742 114.59 12.75 114.59 13.5391V22H111.215V13.9141C111.215 13.3359 111.137 12.8906 110.98 12.5781C110.824 12.2656 110.602 12.0469 110.312 11.9219C110.031 11.7969 109.691 11.7344 109.293 11.7344C108.855 11.7344 108.473 11.8242 108.145 12.0039C107.824 12.1836 107.559 12.4336 107.348 12.7539C107.137 13.0664 106.98 13.4336 106.879 13.8555C106.777 14.2773 106.727 14.7305 106.727 15.2148ZM114.273 14.8281L113.066 14.9805C113.066 14.1523 113.168 13.3828 113.371 12.6719C113.582 11.9609 113.891 11.3359 114.297 10.7969C114.711 10.2578 115.223 9.83984 115.832 9.54297C116.441 9.23828 117.145 9.08594 117.941 9.08594C118.551 9.08594 119.105 9.17578 119.605 9.35547C120.105 9.52734 120.531 9.80469 120.883 10.1875C121.242 10.5625 121.516 11.0547 121.703 11.6641C121.898 12.2734 121.996 13.0195 121.996 13.9023V22H118.609V13.9023C118.609 13.3164 118.531 12.8711 118.375 12.5664C118.227 12.2539 118.008 12.0391 117.719 11.9219C117.438 11.7969 117.102 11.7344 116.711 11.7344C116.305 11.7344 115.949 11.8164 115.645 11.9805C115.34 12.1367 115.086 12.3555 114.883 12.6367C114.68 12.918 114.527 13.2461 114.426 13.6211C114.324 13.9883 114.273 14.3906 114.273 14.8281Z" fill="#121212"/>
<path fill-rule="evenodd" clip-rule="evenodd" d="M14.1497 15.7262C13.7657 23.0669 7.59189 28.9146 0 29V1C7.59189 1.08547 13.7657 6.9331 14.1497 14.2738C14.5287 7.02987 20.5459 1.2399 28 1.0064V28.9937C20.5459 28.7602 14.5287 22.9702 14.1497 15.7262Z" fill="#FF6428"/>
</svg>
